<svg
	width="424"
	height="183"
	viewBox="0 0 424 183"
	xmlns="http://www.w3.org/2000/svg"
	class="w-full h-auto"
>
	<path
		d="M121.499 119.378C121.499 119.378 231.689 28.2382 315.511 28.2382C356.394 28.2382 392.559 49.4658 392.559 91.8C392.559 136.069 355.426 155.301 315.511 155.301C267.371 155.301 241.849 136.069 241.849 136.069C241.849 136.069 229.693 144.476 229.633 144.476C229.633 144.476 254.489 182.94 316.902 182.94C376.351 182.94 423.463 140.303 423.463 93.6748C423.463 42.9947 377.561 0.600006 315.511 0.600006C222.678 0.600006 111.52 109.036 111.52 109.036L121.499 119.378Z"
		fill="inherit"
	/>
	<path
		d="M302.024 64.2828C302.024 64.2828 191.834 155.422 108.013 155.422C67.13 155.422 30.9645 134.195 30.9645 91.8605C30.9645 47.591 68.0976 28.3592 108.013 28.3592C156.153 28.3592 181.674 47.591 181.674 47.591C181.674 47.591 193.83 39.1846 193.891 39.1846C193.891 39.1846 169.034 0.720958 106.622 0.720958C47.1119 0.660481 0 43.2971 0 89.9252C0 140.605 45.9024 183 107.952 183C200.785 183 311.943 74.5639 311.943 74.5639L302.024 64.2828Z"
		fill="inherit"
	/>
</svg>
