<svg width="425" height="425" viewBox="0 0 425 425" fill="none" xmlns="http://www.w3.org/2000/svg">
<path d="M121.868 240.378C121.868 240.378 232.058 149.238 315.879 149.238C356.762 149.238 392.928 170.466 392.928 212.8C392.928 257.069 355.794 276.301 315.879 276.301C267.739 276.301 242.218 257.069 242.218 257.069C242.218 257.069 230.062 265.476 230.001 265.476C230.001 265.476 254.858 303.94 317.27 303.94C376.72 303.94 423.832 261.303 423.832 214.675C423.832 163.995 377.929 121.6 315.879 121.6C223.046 121.6 111.889 230.036 111.889 230.036L121.868 240.378Z" fill="#DD3E42"/>
<path d="M302.393 185.283C302.393 185.283 192.203 276.422 108.381 276.422C67.4984 276.422 31.3329 255.195 31.3329 212.86C31.3329 168.591 68.4661 149.359 108.381 149.359C156.521 149.359 182.043 168.591 182.043 168.591C182.043 168.591 194.199 160.185 194.259 160.185C194.259 160.185 169.403 121.721 106.99 121.721C47.4804 121.66 0.368454 164.297 0.368454 210.925C0.368454 261.605 46.2708 304 108.321 304C201.154 304 312.311 195.564 312.311 195.564L302.393 185.283Z" fill="#DD3E42"/>
</svg>
