<svg width="450" height="474" viewBox="0 0 450 474" fill="none" xmlns="http://www.w3.org/2000/svg">
<path d="M432.46 448.2L432.485 448.175L432.51 448.149C442.509 437.629 447.5 424.741 447.5 409.641V96.9982C447.5 81.3708 442.525 68.4417 432.46 58.4393C422.415 48.457 409.703 43.5 394.522 43.5C379.308 43.5 366.589 48.7596 356.559 59.3004C355.36 60.4931 354.233 61.7236 353.179 62.9917C346.435 55.6692 338.274 48.4932 328.718 41.4576C313.904 30.1367 296.287 20.8306 275.902 13.5154C255.408 6.16124 232.964 2.5 208.595 2.5C170.549 2.5 135.865 12.6641 104.606 32.9929C73.3634 52.7538 48.4015 80.4027 29.71 115.863L29.7065 115.87L29.703 115.877C11.5408 150.846 2.5 191.383 2.5 237.418C2.5 282.902 11.5432 323.431 29.6955 358.945L29.7065 358.966L29.7178 358.988C48.4176 393.901 73.6635 421.538 105.451 441.846L105.465 441.854L105.478 441.862C137.302 461.628 172.817 471.5 211.96 471.5C233.537 471.5 253.467 468.114 271.724 461.31L271.743 461.303L271.762 461.296C290.442 453.983 306.63 445.243 320.299 435.055C328.516 428.931 335.726 422.786 341.916 416.618C343.242 428.746 348.112 439.287 356.534 448.149L356.559 448.175L356.584 448.2C366.629 458.183 379.341 463.14 394.522 463.14C409.703 463.14 422.415 458.183 432.46 448.2ZM330.033 307.357L330.021 307.381L330.009 307.405C320.097 328.2 306.088 344.562 287.979 356.559C269.924 368.52 248.823 374.536 224.579 374.536C200.909 374.536 180.085 368.526 162.021 356.559C143.907 344.559 129.612 328.188 119.138 307.381C109.228 286.581 104.25 263.275 104.25 237.418C104.25 210.995 109.231 187.412 119.138 166.619C129.612 145.812 143.907 129.441 162.021 117.441C180.085 105.474 200.909 99.464 224.579 99.464C248.823 99.464 269.924 105.48 287.979 117.441C306.088 129.438 320.097 145.8 330.009 166.595L330.021 166.619L330.033 166.643C340.492 187.431 345.75 211.005 345.75 237.418C345.75 263.265 340.496 286.562 330.033 307.357Z" fill="#F27F52" stroke="black" stroke-width="5"/>
</svg>